<?xml version="1.0" standalone="no"?><svg xmlns="http://www.w3.org/2000/svg" viewBox="0 0 1440 320"><path fill="#1524AA" fill-opacity="1" d="M0,128L24,122.7C48,117,96,107,144,117.3C192,128,240,160,288,149.3C336,139,384,85,432,85.3C480,85,528,139,576,181.3C624,224,672,256,720,229.3C768,203,816,117,864,117.3C912,117,960,203,1008,208C1056,213,1104,139,1152,133.3C1200,128,1248,192,1296,229.3C1344,267,1392,277,1416,282.7L1440,288L1440,320L1416,320C1392,320,1344,320,1296,320C1248,320,1200,320,1152,320C1104,320,1056,320,1008,320C960,320,912,320,864,320C816,320,768,320,720,320C672,320,624,320,576,320C528,320,480,320,432,320C384,320,336,320,288,320C240,320,192,320,144,320C96,320,48,320,24,320L0,320Z"></path></svg>